# xmcd CD Database Entry
#
# Track frame offsets:
# 150
# 19240
# 25970
# 41043
# 61057
# 77362
# 87023
# 100908
# 114548
# 123582
# 140337
#
# Disc length: 1905 seconds
#
# Revision: 1
# Processed by: cddbd v1.4PL0 Copyright (c) Steve Scherf et al.
# Submitted via: tcd 2.0b
#
DISCID=85076f0b
DTITLE=Frog Eyes - The Golden River
DYEAR=1900
DGENRE=
TTITLE0=One in Six Children Will Flee in Boats
TTITLE1=Time Reveals its Plan At Poisoned Falls
TTITLE2=Masticated Outboard Motors
TTITLE3=Miasma Gardens
TTITLE4=A Latex Ice Age
TTITLE5=Orbis Magnus
TTITLE6=Time Destroys Its Plan At The Reactionary Table
TTITLE7=Soldiers Crash Gathering In Sparrow Hills
TTITLE8=World's Greatest Concertos
TTITLE9=Picture Framing The Gigantic Men Who Fought On Steam Boats
TTITLE10=The Secret Map Flees From Plurality
EXTD=
EXTT0=
EXTT1=
EXTT2=
EXTT3=
EXTT4=
EXTT5=
EXTT6=
EXTT7=
EXTT8=
EXTT9=
EXTT10=
PLAYORDER=
